<svg xmlns="http://www.w3.org/2000/svg" viewBox="0 0 98 128"><title>program-detail</title><path d="M15,0V128h98V0ZM32,27.861A2.229,2.229,0,0,1,34.067,25.5h59.8A2.286,2.286,0,0,1,96,27.861v3.278A2.23,2.23,0,0,1,93.933,33.5h-59.8A2.289,2.289,0,0,1,32,31.139Zm0,23A2.229,2.229,0,0,1,34.067,48.5h59.8A2.286,2.286,0,0,1,96,50.861v3.278A2.23,2.23,0,0,1,93.933,56.5h-59.8A2.289,2.289,0,0,1,32,54.139Zm0,23A2.229,2.229,0,0,1,34.067,71.5h59.8A2.286,2.286,0,0,1,96,73.861v3.278A2.23,2.23,0,0,1,93.933,79.5h-59.8A2.289,2.289,0,0,1,32,77.139Zm0,23A2.229,2.229,0,0,1,34.067,94.5h59.8A2.286,2.286,0,0,1,96,96.861v3.278a2.23,2.23,0,0,1-2.068,2.361h-59.8A2.289,2.289,0,0,1,32,100.139Z" transform="translate(-15)"/></svg>